<?xml version="1.0" standalone="no"?><!DOCTYPE svg PUBLIC "-//W3C//DTD SVG 1.1//EN" "http://www.w3.org/Graphics/SVG/1.1/DTD/svg11.dtd"><svg t="1586156715473" class="icon" viewBox="0 0 1024 1024" version="1.1" xmlns="http://www.w3.org/2000/svg" p-id="2157" xmlns:xlink="http://www.w3.org/1999/xlink" width="200" height="200"><defs><style type="text/css"></style></defs><path d="M922.0099 1023.593229 616.712339 1023.593229C562.298845 1023.593229 518.023345 979.161278 518.023345 924.528754L518.023345 618.261199C518.023345 563.628674 562.298845 519.228014 616.712339 519.228014L922.0099 519.228014C976.454684 519.228014 1020.761474 563.628674 1020.761474 618.261199L1020.761474 924.528754C1020.761474 979.161278 976.454684 1023.593229 922.0099 1023.593229ZM971.823749 618.261199C971.823749 590.694616 949.482613 568.2909 922.0099 568.2909L616.712339 568.2909C589.270916 568.2909 566.929781 590.694616 566.929781 618.261199L566.929781 924.528754C566.929781 952.095337 589.270916 974.499053 616.712339 974.499053L922.0099 974.499053C949.482613 974.499053 971.823749 952.095337 971.823749 924.528754L971.823749 618.261199ZM922.0099 504.396504 616.712339 504.396504C562.298845 504.396504 518.023345 459.964554 518.023345 405.33203L518.023345 99.064475C518.023345 44.46324 562.298845 0.03129 616.712339 0.03129L922.0099 0.03129C976.454684 0.03129 1020.761474 44.46324 1020.761474 99.064475L1020.761474 405.33203C1020.761474 459.964554 976.454684 504.396504 922.0099 504.396504ZM971.823749 99.064475C971.823749 71.529182 949.482613 49.125466 922.0099 49.125466L616.712339 49.125466C589.270916 49.125466 566.929781 71.529182 566.929781 99.064475L566.929781 405.33203C566.929781 432.898613 589.270916 455.302328 616.712339 455.302328L922.0099 455.302328C949.482613 455.302328 971.823749 432.898613 971.823749 405.33203L971.823749 99.064475ZM407.03734 1023.593229 101.739779 1023.593229C47.326285 1023.593229 3.050785 979.161278 3.050785 924.528754L3.050785 618.261199C3.050785 563.628674 47.326285 519.228014 101.739779 519.228014L407.03734 519.228014C461.482124 519.228014 505.788914 563.628674 505.788914 618.261199L505.788914 924.528754C505.788914 979.161278 461.482124 1023.593229 407.03734 1023.593229ZM456.851189 618.261199C456.851189 590.694616 434.510053 568.2909 407.03734 568.2909L101.739779 568.2909C74.298356 568.2909 51.957221 590.694616 51.957221 618.261199L51.957221 924.528754C51.957221 952.095337 74.298356 974.499053 101.739779 974.499053L407.03734 974.499053C434.510053 974.499053 456.851189 952.095337 456.851189 924.528754L456.851189 618.261199ZM407.03734 504.396504 101.739779 504.396504C47.326285 504.396504 3.050785 459.964554 3.050785 405.33203L3.050785 99.064475C3.050785 44.46324 47.326285 0.03129 101.739779 0.03129L407.03734 0.03129C461.482124 0.03129 505.788914 44.46324 505.788914 99.064475L505.788914 405.33203C505.788914 459.964554 461.482124 504.396504 407.03734 504.396504ZM456.851189 99.064475C456.851189 71.529182 434.510053 49.125466 407.03734 49.125466L101.739779 49.125466C74.298356 49.125466 51.957221 71.529182 51.957221 99.064475L51.957221 405.33203C51.957221 432.898613 74.298356 455.302328 101.739779 455.302328L407.03734 455.302328C434.510053 455.302328 456.851189 432.898613 456.851189 405.33203L456.851189 99.064475Z" p-id="2158" fill="#d81e06"></path></svg>