<?xml version="1.0" standalone="no"?><!DOCTYPE svg PUBLIC "-//W3C//DTD SVG 1.1//EN" "http://www.w3.org/Graphics/SVG/1.1/DTD/svg11.dtd"><svg t="1586156884011" class="icon" viewBox="0 0 1024 1024" version="1.1" xmlns="http://www.w3.org/2000/svg" p-id="3965" xmlns:xlink="http://www.w3.org/1999/xlink" width="200" height="200"><defs><style type="text/css"></style></defs><path d="M679.978667 625.642667c76.117333-58.133333 121.514667-154.496 106.474666-260.672-17.450667-123.349333-119.104-221.568-242.922666-235.221334C376.256 111.296 234.666667 241.770667 234.666667 405.333333c0 89.941333 43.008 169.621333 109.354666 220.309334-107.584 24.234667-191.530667 110.869333-211.477333 219.968-4.778667 26.090667 15.637333 50.133333 42.176 50.133333h674.602667c26.517333 0 46.954667-24.021333 42.176-50.133333-19.989333-109.098667-103.936-195.754667-211.52-219.968zM298.666667 405.333333c0-117.632 95.701333-213.333333 213.333333-213.333333s213.333333 95.701333 213.333333 213.333333-95.701333 213.333333-213.333333 213.333334-213.333333-95.701333-213.333333-213.333334z m106.410666 277.333334h213.866667c89.856 0 166.890667 55.893333 198.165333 134.762666 2.730667 6.869333-2.709333 14.314667-10.090666 14.314667H217.002667c-7.381333 0-12.821333-7.445333-10.090667-14.314667C238.165333 738.56 315.221333 682.666667 405.077333 682.666667z" fill="#d81e06" p-id="3966"></path></svg>